<svg xmlns="http://www.w3.org/2000/svg" id="svg9" width="812.821"
height="915.273" version="1.1">
    <style id="style1">
        @import url(https://fonts.googleapis.com/css2?family=JetBrains+Mono:wght@800&amp;display=swap);
    </style>
    <path id="quarto1" fill="#75aadb" d="M480.34 73.873c31.07 8.71 60.07 25.75 85
    46 .52.42 1.04.83 1.57 1.26 8.21 6.62 15.76 13.87 23.24 21.3.44.43.44.43
    2.64 2.62 5.94 5.96 11.34 12.21 16.55 18.82.54.68 1.08 1.36 1.63 2.06 17
    21.67 32.23 46.27 41.16 72.41.95 2.77 1.99 5.43 3.11 8.13 8.54 21.18 13.1
    44.12 15.85 66.71.13 1.04.26 2.08.39 3.15.93 8.32.86 16.03.86
    24.54h-259c-10-56-10-56-10-61 2.38-2.81 2.38-2.81
    5-5h2c.24-.57.48-1.14.72-1.73 1.55-2.75 3.41-4.48 5.72-6.65 6.18-6.06
    11.37-12.71 16.56-19.62.43-.56.86-1.12 1.3-1.7 16.02-21.11 26.9-45.39
    34.57-70.64.88-2.84 1.81-5.62 2.82-8.41 1.08-3.22 1.73-6.37
    2.26-9.73.17-1.06.35-2.12.52-3.21.09-.54.09-.54.53-3.31.34-2.1.69-4.19
    1.04-6.29l1.02-6.33c.18-1.06.35-2.11.53-3.2.17-1.04.33-2.08.51-3.16.15-.92.3-1.83.45-2.78
    1.08-7.75 1.6-15.36 1.55-23.19 0-.89-.01-1.79-.01-2.71
    0-2.82-.01-5.64-.03-8.46
    0-1.93-.01-3.86-.01-5.79-.01-4.7-.03-9.39-.05-14.09z"/>
    <path id="quarto2" fill="#75aadb" d="M336.34 63.873c-.54 6.43-1.75 12.48-3.24
    18.76-2.44 10.39-3.45 20.59-3.76 31.24-.02.54-.02.54-.1 3.29-.86 31.88 2.18
    64.4 8.87 95.62.28 2.51.24 3.74-.77 6.09-1.81 2.05-3.6 3.93-5.56
    5.81-.27.27-.27.27-1.65 1.62-3.56 3.46-7.22 6.78-11 10-2.43 2.13-4.66
    4.43-6.92 6.74-1.77 1.73-3.58 3.33-5.46 4.93-5.05 4.39-9.75 9.1-14.47
    13.84-.86.85-1.72 1.71-2.61 2.59-4.98 4.99-9.75 10.1-14.33
    15.47-.87.99-1.74 1.97-2.63 2.99-15.24 17.62-27.9 36.69-37.37
    58.01h-147c0-23.13 0-23.13 2-33 .24-1.22.48-2.44.73-3.7.51-2.57 1.03-5.14
    1.56-7.7.61-3.07 1.09-6.13 1.52-9.22 1.52-9.33 4.44-18.36
    7.19-27.38.24-.79.47-1.57.72-2.39 3.76-12.34 8.68-23.99
    14.28-35.61.39-.82.79-1.65 1.19-2.49 5.5-11.41 11.93-22.1
    18.93-32.63.19-.29.19-.29 1.14-1.71 7.68-11.55 16.41-21.94
    25.74-32.17l4.62-5.19c37.34-41.41 88.89-67.58 142.5-80.62.85-.21 1.69-.42
    2.55-.63 7.7-1.81 15.41-2.77 23.33-2.56z"/>
    <path id="quarto3" fill="#75aadb" d="M487.34 366.873h185c0 24.3 0 24.3-1.9
    33.55-.75 3.68-1.46 7.36-2.14 11.05-10.61 56.39-34.91 106.47-72.96
    149.4-.23.26-.23.26-1.38 1.57-11.05 12.55-23.3 23.36-36.62
    33.43-.61.46-1.21.93-1.84 1.4-12.93 9.86-26.45 17.8-40.85
    25.35-1.03.54-2.06 1.09-3.13 1.65-9.45 4.89-19.18 8.98-29.18
    12.6-1.12.42-2.24.83-3.39 1.26-1.23.45-2.47.9-3.73
    1.36-1.16.43-2.32.86-3.51 1.29-3.14 1.02-6.12 1.59-9.37
    2.09.02-.96.03-1.91.05-2.9.6-40.12.6-40.12-4.11-55.59-1.08-4.03-1.38-7.8-1.56-11.95l-.12-2.21c-.1-1.79-.18-3.57-.26-5.35l1.73-.78c28.71-13.55
    48.63-38.23 60.27-67.22.26-.63.52-1.27.79-1.92 10.93-26.62
    8.51-58.66-2.04-85.02-5.87-13.7-13.87-24.98-23.75-36.06zm-399 0h136c-1.11
    8.87-1.11 8.87-1.97 12.5-6.2 28.13-4.8 58.37 4.97 85.5.46 1.33.92 2.65 1.38
    3.98 10.68 30.26 29.02 58.39 54.62 78.02.92.74 1.85 1.48 2.8 2.24 12.64
    9.89 26.63 16.71 41.35 22.94 1.98.88 3.92 1.84 5.85 2.82-3.09 1.72-5.92
    2.48-9.38 3.19-12.15 2.98-21.96 8.85-30.62 17.81-.57.59-1.14 1.17-1.73
    1.78-9.52 10.42-13.1 22.77-16.27
    36.22-11.9-2.18-22.34-7.46-32.88-13.25-1.05-.58-2.1-1.15-3.18-1.74-18.64-10.29-36.43-22.36-51.94-37.01a358.21
    358.21 0 0
    0-3.69-3.12c-10.36-9.06-19.88-19.01-28.31-29.88-1.08-1.34-2.15-2.68-3.23-4.01-19.16-23.9-33.8-50.42-44.77-78.99-.33-.87-.67-1.74-1.01-2.63-7.82-20.66-12.63-41.63-15.6-63.49-.34-2.53-.71-5.06-1.08-7.59-1.21-8.61-1.31-16.39-1.31-25.29z"/>
    <text id="text" x="404.34" y="873.873"
    style="font-weight:800;font-size:230px;font-family:&quot;JetBrains
    Mono&quot;,monospace" text-anchor="middle"><tspan id="tspan8"
    fill="#75aadb">M</tspan><tspan id="tspan9" fill="#fff">usify</tspan></text>
    <path id="clef" fill="#fff" d="M440.565 82.938c7.119 54.593-32.319 98.771-67.357
    134.483-15.933 15.663-2.642 2.585-10.985
    10.372-2.065-8.364-6.221-30.226-6.111-36.844.78-47.042 37.084-115.032
    70.004-140.11 5.756 10.072 10.248 10.882 14.448 32.1zm20.517
    281.873c-22.17-15.82-50.751-19.976-76.689-15.454-4.069-21.914-8.14-43.83-12.208-65.727
    40.018-40.668 83.439-87.872
    83.823-149.115-.216-38.976-7.477-81.573-33.145-113.218-29.824 2.24-49.767
    37.648-64.924 59.66-24.676 46.632-16.742 103.321-5.078 153.605-13.696
    16.623-32.946 30.437-46.416 47.74-40.127 40.303-74.458 94.82-65.418 155.03
    5.096 58.218 49.142 112.35 107.27 126.197 22.077 5.501 45.272 6.043 67.29
    1.73 5.13 39.289 20.65 80.831 5.454 118.969-11.421 27.904-47.321
    52.455-74.941 38.276-10.716-5.517-2.028-.89-8.546-4.401 18.665-4.486
    34.574-18.09 38.855-27.328
    13.908-25.564-9.073-63.544-39.782-58.637-39.744.803-54.329 54.832-27.882
    81.81 24.533 26.542 68.128 22.91 95.65 5.553 31.202-20.604 33.866-61.885
    29.092-97.124-1.612-11.84-8.587-46.625-9.71-59.143 12.114-4.349 3.642-1.031
    20.722-7.84 46.176-18.389 74.211-74.373
    59.186-124.366-6.416-25.653-19.992-50.884-42.603-66.217zm13.098
    100.53c4.882 34.767-16.085 75.454-51.346
    86.612-2.838-13.883-3.593-17.655-5.446-25.758-9.86-42.955-15.884-87.083-23.825-130.633
    28.468-2.934 61.095 9.482 71.951 38.138 4.614 10.074 6.703 20.901 8.666
    31.64zm-87.601 90.733c-44.65
    2.462-88.796-27.852-101.353-71.263-14.379-37.596-11.89-80.849
    10.773-113.574 18.65-29.72 44.083-54.22 68.277-79.33 3.851 19.68 7.702
    39.36 11.553 59.057-52.14 13.655-85.334 82.508-52.338 130.11 9.79 13.34 36
    38.818 49.54 28.533-19.759-11.927-36.266-32.461-33.627-56.35-2.163-22.387
    22.449-50.832 44.817-55.844 9.32 50.099 19.962 106.047 29.283 156.163-8.829
    1.747-17.872 2.498-26.925 2.498z" style="stroke-width:.630539"/>
</svg>
