<?xml version="1.0" encoding="UTF-8" standalone="no"?>
<svg
   id="svg1"
   width="378.32504"
   height="378.32504"
   version="1.1"
   viewBox="0 0 600.00002 517.24097"
   xmlns="http://www.w3.org/2000/svg"
   xmlns:svg="http://www.w3.org/2000/svg">
  <defs
     id="defs1" />
  <style
     id="style1">
        @import url(https://fonts.googleapis.com/css2?family=JetBrains+Mono:wght@800&amp;display=swap);
    </style>
  <circle
     id="blueCircle"
     cx="300"
     cy="258.62048"
     r="300"
     fill="#75aadb" />
  <path
     id="path1"
     d="m 376.84077,17.564919 c 5.775,44.397695 -38.232,80.326567 -77.207,109.369361 -17.703,12.73842 -2.935,2.10223 -12.19,8.43495 -1.934,-6.80182 -5.653,-24.58122 -5.305,-29.9636 2.47,-38.256958 43.928,-93.550587 80.253,-113.9456082 5.85,8.19084501 10.66,8.84931001 14.448,26.1048972 z m 12.327,229.235931 c -23.33,-12.86611 -53.968,-16.24617 -82.06,-12.56816 -3.623,-17.82196 -7.248,-35.6448 -10.87,-53.45288 44.51,-33.07436 92.911,-71.46336 95.448,-121.269498 1.118,-31.6975 -5.226,-66.3398472 -31.774,-92.075552 -32.199,1.821635 -54.905,30.6177238 -71.993,48.518745 -28.193,37.924244 -21.613,84.027174 -10.793,124.920595 -15.327,13.51937 -36.539,24.75322 -51.646,38.82593 -44.615,32.77642 -83.48,77.1133 -75.831,126.07855 3.471,47.34688 49.033,91.37018 111.158,102.63183 23.588,4.47374 48.55,4.91416 72.413,1.40641 4.164,31.95202 19.44,65.73697 1.751,96.75255 -13.268,22.69357 -52.784,42.66032 -82.04,31.12851 -11.35,-4.48676 -2.153,-0.72361 -9.051,-3.57899 20.258,-3.64848 37.864,-14.71207 42.795,-22.22447 15.865,-20.79027 -7.57,-51.67816 -40.814,-47.68741 -42.833,0.65325 -60.414,44.59228 -32.866,66.5327 25.503,21.58598 72.582,18.63158 102.825,4.51629 34.32,-16.75696 38.62,-50.32908 34.7,-78.98705 -1.326,-9.62852 -7.632,-37.91817 -8.408,-48.09917 13.198,-3.53642 3.958,-0.83828 22.59,-6.37615 50.37,-14.95445 82.505,-60.48404 68.056,-101.14117 -6.021,-20.86237 -19.769,-41.38248 -43.59,-53.85161 z m 10.623,81.75642 c 4.052,28.27488 -19.94,61.36402 -58.304,70.43832 -2.575,-11.29032 -3.257,-14.35765 -4.972,-20.94751 -9.131,-34.93423 -14.089,-70.8214 -21.133,-106.23862 30.763,-2.38628 65.473,7.71133 76.172,31.01559 4.62,8.19344 6.495,16.99845 8.237,25.73222 z m -97.494,73.78971 c -48.175,2.00232 -94.67,-22.651 -106.69,-57.95528 -14.183,-30.57516 -10.004,-65.75089 15.54,-92.36483 21.116,-24.17033 49.357,-44.09453 76.286,-64.51561 3.465,16.00468 6.93,32.00936 10.395,48.02794 -56.63,11.10529 -94.766,67.10082 -60.879,105.81296 10.082,10.84989 37.427,31.5698 52.368,23.20522 -20.868,-9.69975 -37.935,-26.39938 -34.265,-45.82756 -1.554,-18.20593 25.94,-41.33904 50.205,-45.41492 8.302,40.74313 17.824,86.24319 26.126,127.00109 -9.57,1.4203 -19.336,2.03099 -29.086,2.03099 z"
     style="stroke-width:0.999996" />
</svg>
